{"asset":{"generator":"Khronos glTF Spline I/O v0.0.1","version":"2.0"},"scenes":[{"nodes":[0]}],"nodes":[{"name":"Untitled","children":[1,2]},{"name":"Lathe","matrix":[5,0,0,0,0,5,0,0,0,0,5,0,259.46409259030287,138.80701912181195,-236.14875990905307,1],"mesh":0},{"name":"Default Camera","camera":0,"translation":[378.0286794139603,179.02734989046834,1000],"rotation":[-2.842170943040401e-17,0,0,1],"children":[3]},{"name":"Default Directional Light","translation":[850000,1300000,1000000],"rotation":[-0.45895513091666534,0.1367267597249462,-0.25064115022945466,0.8413352451859125],"extensions":{"KHR_lights_punctual":{"light":0}}}],"cameras":[{"type":"orthographic","orthographic":{"xmag":3440,"ymag":1415,"zfar":50000,"znear":-50000}}],"meshes":[{"primitives":[{"attributes":{"POSITION":1,"TEXCOORD_0":2,"NORMAL":3},"indices":0}]}],"buffers":[{"uri":"data:application/octet-stream;base64,","byteLength":184352}],"bufferViews":[{"buffer":0,"byteOffset":0,"byteLength":49152,"target":34963},{"buffer":0,"byteOffset":49152,"byteLength":50700,"target":34962},{"buffer":0,"byteOffset":99852,"byteLength":33800,"target":34962},{"buffer":0,"byteOffset":133652,"byteLength":50700,"target":34962}],"accessors":[{"bufferView":0,"byteOffset":0,"componentType":5123,"count":24576,"type":"SCALAR","min":[0],"max":[4224]},{"bufferView":1,"byteOffset":0,"componentType":5126,"count":4225,"type":"VEC3","min":[-34.559967041015625,-50,-34.559967041015625],"max":[34.559967041015625,57.698936462402344,34.559967041015625]},{"bufferView":2,"byteOffset":0,"componentType":5126,"count":4225,"type":"VEC2","min":[0,0],"max":[1,1]},{"bufferView":3,"byteOffset":0,"componentType":5126,"count":4225,"type":"VEC3","min":[-0.9999265074729919,-0.7399935126304626,-0.9999265074729919],"max":[0.9999265074729919,0.9997903108596802,0.9999266862869263]}],"extensions":{"KHR_lights_punctual":{"lights":[{"type":"directional","name":"Default Directional Light","color":[1,1,1],"intensity":0.75}]}},"extensionsUsed":["KHR_lights_punctual"]}