{"asset":{"generator":"Khronos glTF Spline I/O v0.0.1","version":"2.0"},"scenes":[{"nodes":[0]}],"nodes":[{"name":"Untitled","children":[1,2]},{"name":"Torus Knot","matrix":[1,0,0,0,0,1,0,0,0,0,1,0,-207.32736639946233,29.983978271484375,0.500213623046875,1],"mesh":0},{"name":"Default Camera","camera":0,"translation":[576,576,576],"rotation":[-0.2798481423331213,0.3647051996310007,0.11591689595929505,0.8804762392171493],"children":[3]},{"name":"Default Directional Light","translation":[850000,1300000,1000000],"rotation":[-0.45895513091666534,0.1367267597249462,-0.25064115022945466,0.8413352451859125],"extensions":{"KHR_lights_punctual":{"light":0}}}],"cameras":[{"type":"orthographic","orthographic":{"xmag":3440,"ymag":1415,"zfar":50000,"znear":-50000}}],"meshes":[{"primitives":[{"attributes":{"POSITION":1,"NORMAL":2,"TEXCOORD_0":3},"indices":0}]}],"buffers":[{"uri":"data:application/octet-stream;base64,","byteLength":163128}],"bufferViews":[{"buffer":0,"byteOffset":0,"byteLength":43320,"target":34963},{"buffer":0,"byteOffset":43320,"byteLength":44928,"target":34962},{"buffer":0,"byteOffset":88248,"byteLength":44928,"target":34962},{"buffer":0,"byteOffset":133176,"byteLength":29952,"target":34962}],"accessors":[{"bufferView":0,"byteOffset":0,"componentType":5123,"count":21660,"type":"SCALAR","min":[0],"max":[3743]},{"bufferView":1,"byteOffset":0,"componentType":5126,"count":3744,"type":"VEC3","min":[-228.31924438476562,-277.99530029296875,-158.98971557617188],"max":[301.7006530761719,278.0322265625,158.98753356933594]},{"bufferView":2,"byteOffset":0,"componentType":5126,"count":3744,"type":"VEC3","min":[-0.9999933838844299,-0.9997890591621399,-0.9998076558113098],"max":[0.9994466304779053,0.9995932579040527,0.9997828006744385]},{"bufferView":3,"byteOffset":0,"componentType":5126,"count":3744,"type":"VEC2","min":[0,0],"max":[1,1]}],"extensions":{"KHR_lights_punctual":{"lights":[{"type":"directional","name":"Default Directional Light","color":[1,1,1],"intensity":0.75}]}},"extensionsUsed":["KHR_lights_punctual"]}