{"asset":{"generator":"Khronos glTF Spline I/O v0.0.1","version":"2.0"},"scenes":[{"nodes":[0]}],"nodes":[{"name":"Untitled","children":[1,2]},{"name":"Crystal","matrix":[1,0,0,0,0,0.575,0,0,0,0,1,0,0,-7.5,0,1],"children":[3,4]},{"name":"Default Camera","camera":0,"translation":[1.0074e-320,6.123233995736766e-14,1000],"rotation":[-3.061616997868383e-17,0,0,1],"children":[5]},{"name":"Pyramid 2","matrix":[1,0,0,0,0,-1,0,0,0,0,1,0,0,-50,0,1],"mesh":0},{"name":"Pyramid","matrix":[1,0,0,0,0,1,0,0,0,0,1,0,0,50,0,1],"mesh":1},{"name":"Default Directional Light","translation":[850000,1300000,1000000],"rotation":[-0.45895513091666534,0.1367267597249462,-0.25064115022945466,0.8413352451859125],"extensions":{"KHR_lights_punctual":{"light":0}}}],"cameras":[{"type":"orthographic","orthographic":{"xmag":3440,"ymag":1415,"zfar":50000,"znear":-50000}}],"meshes":[{"primitives":[{"attributes":{"POSITION":1,"NORMAL":2,"TEXCOORD_0":3},"indices":0}]},{"primitives":[{"attributes":{"POSITION":5,"NORMAL":6,"TEXCOORD_0":7},"indices":4}]}],"buffers":[{"uri":"data:application/octet-stream;base64,","byteLength":592},{"uri":"data:application/octet-stream;base64,","byteLength":592}],"bufferViews":[{"buffer":0,"byteOffset":0,"byteLength":48,"target":34963},{"buffer":0,"byteOffset":48,"byteLength":204,"target":34962},{"buffer":0,"byteOffset":252,"byteLength":204,"target":34962},{"buffer":0,"byteOffset":456,"byteLength":136,"target":34962},{"buffer":1,"byteOffset":0,"byteLength":48,"target":34963},{"buffer":1,"byteOffset":48,"byteLength":204,"target":34962},{"buffer":1,"byteOffset":252,"byteLength":204,"target":34962},{"buffer":1,"byteOffset":456,"byteLength":136,"target":34962}],"accessors":[{"bufferView":0,"byteOffset":0,"componentType":5123,"count":24,"type":"SCALAR","min":[0],"max":[16]},{"bufferView":1,"byteOffset":0,"componentType":5126,"count":17,"type":"VEC3","min":[-35.35533905029297,-50,-35.35533905029297],"max":[35.35533905029297,50,35.35533905029297]},{"bufferView":2,"byteOffset":0,"componentType":5126,"count":17,"type":"VEC3","min":[-0.9428090453147888,-1,-0.9428090453147888],"max":[0.9428090453147888,0.3333333432674408,0.9428090453147888]},{"bufferView":3,"byteOffset":0,"componentType":5126,"count":17,"type":"VEC2","min":[0,0],"max":[0,0]},{"bufferView":4,"byteOffset":0,"componentType":5123,"count":24,"type":"SCALAR","min":[0],"max":[16]},{"bufferView":5,"byteOffset":0,"componentType":5126,"count":17,"type":"VEC3","min":[-35.35533905029297,-50,-35.35533905029297],"max":[35.35533905029297,50,35.35533905029297]},{"bufferView":6,"byteOffset":0,"componentType":5126,"count":17,"type":"VEC3","min":[-0.9428090453147888,-1,-0.9428090453147888],"max":[0.9428090453147888,0.3333333432674408,0.9428090453147888]},{"bufferView":7,"byteOffset":0,"componentType":5126,"count":17,"type":"VEC2","min":[0,0],"max":[0,0]}],"extensions":{"KHR_lights_punctual":{"lights":[{"type":"directional","name":"Default Directional Light","color":[1,1,1],"intensity":0.75}]}},"extensionsUsed":["KHR_lights_punctual"]}