{"asset":{"generator":"Khronos glTF Spline I/O v0.0.1","version":"2.0"},"scenes":[{"nodes":[0]}],"nodes":[{"name":"Untitled","children":[1,2]},{"name":"Icosahedron","matrix":[1,0,0,0,0,1,0,0,0,0,1,0,0,0,0,1],"mesh":0},{"name":"Default Camera","camera":0,"translation":[2.068e-319,6.123233995736766e-14,1000],"rotation":[-3.061616997868383e-17,0,0,1],"children":[3]},{"name":"Default Directional Light","translation":[850000,1300000,1000000],"rotation":[-0.45895513091666534,0.1367267597249462,-0.25064115022945466,0.8413352451859125],"extensions":{"KHR_lights_punctual":{"light":0}}}],"cameras":[{"type":"orthographic","orthographic":{"xmag":3440,"ymag":1415,"zfar":50000,"znear":-50000}}],"meshes":[{"primitives":[{"attributes":{"POSITION":0,"NORMAL":1,"TEXCOORD_0":2}}]}],"buffers":[{"uri":"data:application/octet-stream;base64,","byteLength":1920}],"bufferViews":[{"buffer":0,"byteOffset":0,"byteLength":720,"target":34962},{"buffer":0,"byteOffset":720,"byteLength":720,"target":34962},{"buffer":0,"byteOffset":1440,"byteLength":480,"target":34962}],"accessors":[{"bufferView":0,"byteOffset":0,"componentType":5126,"count":60,"type":"VEC3","min":[-42.53253936767578,-42.53253936767578,-42.53253936767578],"max":[42.53253936767578,42.53253936767578,42.53253936767578]},{"bufferView":1,"byteOffset":0,"componentType":5126,"count":60,"type":"VEC3","min":[-0.9341723322868347,-0.9341723322868347,-0.9341723322868347],"max":[0.9341723322868347,0.9341723322868347,0.9341723322868347]},{"bufferView":2,"byteOffset":0,"componentType":5126,"count":60,"type":"VEC2","min":[0,0.17620819807052612],"max":[1.0881041288375854,0.8237918019294739]}],"extensions":{"KHR_lights_punctual":{"lights":[{"type":"directional","name":"Default Directional Light","color":[1,1,1],"intensity":0.75}]}},"extensionsUsed":["KHR_lights_punctual"]}