{"asset":{"generator":"Khronos glTF Spline I/O v0.0.1","version":"2.0"},"scenes":[{"nodes":[0]}],"nodes":[{"name":"Untitled","children":[1,2,3,4,5]},{"name":"Default Camera","camera":0,"translation":[3.113e-321,6.123233995736766e-14,1000],"rotation":[-3.061616997868383e-17,0,0,1],"children":[6]},{"name":"Torus Knot 2","matrix":[-2.220446049250313e-16,1,1.2246467991473532e-16,0,-1,-2.220446049250313e-16,-2.465190328815662e-32,0,0,1.2246467991473532e-16,-1,0,309.71263122558594,1.9999999999998868,-193.99821853637695,1],"mesh":0},{"name":"Torus Knot 3","matrix":[1,0,0,0,0,1,0,0,0,0,-1,0,315.8072662353517,0.017730712890625,299.9868431091303,1],"mesh":1},{"name":"Torus Knot","matrix":[1,0,0,0,0,1,0,0,0,0,-1,0,309.71263122558594,0,148.99342727661093,1],"mesh":2},{"name":"Helix","matrix":[0.7071067811865476,0.7071067811865478,0,0,-0.645974188021251,0.6459741880212507,-0.40673664307580026,0,-0.28760623847595057,0.28760623847595046,0.9135454576425999,0,318.4082484768718,1.8043827487141009,90.92229087981235,1],"mesh":3},{"name":"Default Directional Light","translation":[850000,1300000,1000000],"rotation":[-0.45895513091666534,0.1367267597249462,-0.25064115022945466,0.8413352451859125],"extensions":{"KHR_lights_punctual":{"light":0}}}],"cameras":[{"type":"orthographic","orthographic":{"xmag":3440,"ymag":1415,"zfar":50000,"znear":-50000}}],"meshes":[{"primitives":[{"attributes":{"POSITION":1,"NORMAL":2,"TEXCOORD_0":3},"indices":0}]},{"primitives":[{"attributes":{"POSITION":5,"NORMAL":6,"TEXCOORD_0":7},"indices":4}]},{"primitives":[{"attributes":{"POSITION":9,"NORMAL":10,"TEXCOORD_0":11},"indices":8}]},{"primitives":[{"attributes":{"POSITION":13,"NORMAL":14,"TEXCOORD_0":15},"indices":12}]}],"buffers":[{"uri":"data:application/octet-stream;base64,","byteLength":10736},{"uri":"data:application/octet-stream;base64,","byteLength":93216},{"uri":"data:application/octet-stream;base64,","byteLength":93216},{"uri":"data:application/octet-stream;base64,","byteLength":5716}],"bufferViews":[{"buffer":0,"byteOffset":0,"byteLength":2640,"target":34963},{"buffer":0,"byteOffset":2640,"byteLength":3036,"target":34962},{"buffer":0,"byteOffset":5676,"byteLength":3036,"target":34962},{"buffer":0,"byteOffset":8712,"byteLength":2024,"target":34962},{"buffer":1,"byteOffset":0,"byteLength":24576,"target":34963},{"buffer":1,"byteOffset":24576,"byteLength":25740,"target":34962},{"buffer":1,"byteOffset":50316,"byteLength":25740,"target":34962},{"buffer":1,"byteOffset":76056,"byteLength":17160,"target":34962},{"buffer":2,"byteOffset":0,"byteLength":24576,"target":34963},{"buffer":2,"byteOffset":24576,"byteLength":25740,"target":34962},{"buffer":2,"byteOffset":50316,"byteLength":25740,"target":34962},{"buffer":2,"byteOffset":76056,"byteLength":17160,"target":34962},{"buffer":3,"byteOffset":0,"byteLength":1236,"target":34963},{"buffer":3,"byteOffset":1236,"byteLength":1680,"target":34962},{"buffer":3,"byteOffset":2916,"byteLength":1680,"target":34962},{"buffer":3,"byteOffset":4596,"byteLength":1120,"target":34962}],"accessors":[{"bufferView":0,"byteOffset":0,"componentType":5123,"count":1320,"type":"SCALAR","min":[0],"max":[252]},{"bufferView":1,"byteOffset":0,"componentType":5126,"count":253,"type":"VEC3","min":[-246.68885803222656,-353.0640869140625,-129.08360290527344],"max":[396.4999084472656,353.0368347167969,129.0847930908203]},{"bufferView":2,"byteOffset":0,"componentType":5126,"count":253,"type":"VEC3","min":[-0.9999994039535522,-0.9973659515380859,-0.9943822026252747],"max":[0.9999994039535522,0.9973659515380859,0.9943822026252747]},{"bufferView":3,"byteOffset":0,"componentType":5126,"count":253,"type":"VEC2","min":[0,0],"max":[1,1]},{"bufferView":4,"byteOffset":0,"componentType":5123,"count":12288,"type":"SCALAR","min":[0],"max":[2144]},{"bufferView":5,"byteOffset":0,"componentType":5126,"count":2145,"type":"VEC3","min":[-196.24855041503906,-196.24855041503906,-70.73326110839844],"max":[196.24855041503906,196.24855041503906,70.7394027709961]},{"bufferView":6,"byteOffset":0,"componentType":5126,"count":2145,"type":"VEC3","min":[-0.9998195171356201,-0.9998195171356201,-0.9986752867698669],"max":[0.9998195171356201,0.9998195171356201,0.9986752867698669]},{"bufferView":7,"byteOffset":0,"componentType":5126,"count":2145,"type":"VEC2","min":[0,0],"max":[1,1]},{"bufferView":8,"byteOffset":0,"componentType":5123,"count":12288,"type":"SCALAR","min":[0],"max":[2144]},{"bufferView":9,"byteOffset":0,"componentType":5126,"count":2145,"type":"VEC3","min":[-655.2493896484375,-655.2493896484375,-223.71873474121094],"max":[655.2493896484375,655.2493896484375,223.71435546875]},{"bufferView":10,"byteOffset":0,"componentType":5126,"count":2145,"type":"VEC3","min":[-0.999920666217804,-0.999920666217804,-0.9960916638374329],"max":[0.999920666217804,0.999920666217804,0.9960916638374329]},{"bufferView":11,"byteOffset":0,"componentType":5126,"count":2145,"type":"VEC2","min":[0,0],"max":[1,1]},{"bufferView":12,"byteOffset":0,"componentType":5123,"count":618,"type":"SCALAR","min":[0],"max":[139]},{"bufferView":13,"byteOffset":0,"componentType":5126,"count":140,"type":"VEC3","min":[-49.868656158447266,-829.8644409179688,-49.941612243652344],"max":[49.98540115356445,829.8644409179688,50]},{"bufferView":14,"byteOffset":0,"componentType":5126,"count":140,"type":"VEC3","min":[-0.9973731637001038,-0.8417007923126221,-0.9988322257995605],"max":[0.9997079968452454,0.9439801573753357,1]},{"bufferView":15,"byteOffset":0,"componentType":5126,"count":140,"type":"VEC2","min":[0,0],"max":[1,1]}],"extensions":{"KHR_lights_punctual":{"lights":[{"type":"directional","name":"Default Directional Light","color":[1,1,1],"intensity":0.75}]}},"extensionsUsed":["KHR_lights_punctual"]}